<?xml version="1.0" encoding="utf-8"?>
<!-- Generator: Adobe Illustrator 16.0.0, SVG Export Plug-In . SVG Version: 6.00 Build 0)  -->
<!DOCTYPE svg PUBLIC "-//W3C//DTD SVG 1.1//EN" "http://www.w3.org/Graphics/SVG/1.1/DTD/svg11.dtd">
<svg version="1.1" xmlns="http://www.w3.org/2000/svg" xmlns:xlink="http://www.w3.org/1999/xlink" x="0px" y="0px" width="140px"
	 height="53px" viewBox="0 0 140 53" enable-background="new 0 0 140 53" xml:space="preserve">
<g id="Layer_1">
</g>
<g id="Capa_1">
	<g opacity="0.5">
		<path fill="#E5BBE8" d="M31.868,16.926l1.762-8.271h-3.233l-1.762,8.271h-3.169l3.19-14.964c-0.974,0.408-1.731,1.019-2.271,1.831
			c-0.541,0.813-0.812,1.811-0.812,2.992c0,0.279,0.017,0.507,0.048,0.682c0.033,0.176,0.068,0.315,0.107,0.42
			c0.04,0.104,0.076,0.184,0.107,0.241c0.033,0.058,0.049,0.107,0.049,0.15c-0.38,0-0.716-0.038-1.01-0.112
			c-0.294-0.076-0.541-0.195-0.741-0.36s-0.351-0.383-0.451-0.655s-0.15-0.608-0.15-1.01c0-0.487,0.105-0.967,0.317-1.439
			c0.211-0.473,0.499-0.92,0.864-1.343s0.797-0.812,1.294-1.171c0.498-0.358,1.033-0.668,1.606-0.93
			c0.573-0.261,1.167-0.465,1.783-0.611c0.616-0.147,1.231-0.221,1.848-0.221c0.165,0,0.317,0.004,0.456,0.011
			c0.141,0.007,0.281,0.018,0.425,0.032l-1.407,6.553h3.233l1.407-6.553h3.169l-3.491,16.457H31.868z"/>
		<path fill="#E5BBE8" d="M49.999,8.568c-0.43,0.451-0.984,0.834-1.665,1.149s-1.425,0.541-2.234,0.677
			c-0.086,1.017-0.281,1.934-0.586,2.75c-0.304,0.816-0.688,1.511-1.154,2.084s-0.999,1.014-1.601,1.321s-1.239,0.462-1.912,0.462
			c-0.509,0-0.979-0.062-1.413-0.188c-0.433-0.126-0.805-0.326-1.117-0.602c-0.311-0.276-0.555-0.635-0.73-1.074
			c-0.175-0.441-0.263-0.977-0.263-1.606c0-0.43,0.045-0.919,0.134-1.466c0.09-0.549,0.233-1.112,0.43-1.692
			c0.197-0.58,0.451-1.147,0.764-1.702c0.311-0.556,0.69-1.052,1.139-1.488c0.447-0.437,0.965-0.789,1.552-1.059
			c0.587-0.268,1.257-0.402,2.009-0.402c1.884,0,2.825,1.171,2.825,3.513v0.021c0.036,0.015,0.069,0.021,0.103,0.021
			c0.031,0,0.076,0,0.134,0c0.258,0,0.535-0.038,0.833-0.112C47.541,9.1,47.839,9.002,48.14,8.88s0.595-0.263,0.881-0.425
			c0.286-0.16,0.548-0.323,0.784-0.488L49.999,8.568z M44.273,10.459c-0.229-0.058-0.385-0.17-0.467-0.338
			c-0.083-0.169-0.124-0.364-0.124-0.586c0-0.308,0.062-0.561,0.188-0.758c0.125-0.196,0.291-0.342,0.499-0.435
			c-0.015-0.236-0.039-0.435-0.075-0.597c-0.036-0.16-0.086-0.293-0.15-0.396C44.08,7.245,44,7.172,43.902,7.129
			c-0.096-0.043-0.22-0.064-0.37-0.064c-0.265,0-0.52,0.102-0.763,0.307c-0.243,0.203-0.475,0.474-0.693,0.811
			c-0.218,0.337-0.418,0.722-0.602,1.154c-0.182,0.434-0.338,0.88-0.467,1.338s-0.229,0.911-0.301,1.359
			c-0.071,0.447-0.107,0.854-0.107,1.219s0.02,0.662,0.059,0.892c0.04,0.229,0.104,0.41,0.193,0.542
			c0.09,0.133,0.206,0.225,0.35,0.274s0.318,0.075,0.526,0.075c0.265,0,0.532-0.118,0.8-0.354c0.27-0.236,0.518-0.559,0.747-0.967
			s0.432-0.892,0.606-1.45C44.056,11.705,44.187,11.104,44.273,10.459z"/>
		<path fill="#E5BBE8" d="M54.425,5.926h3.169l-1.579,7.477c-0.079,0.351-0.118,0.616-0.118,0.795c0,0.222,0.059,0.399,0.178,0.531
			c0.117,0.133,0.31,0.199,0.574,0.199c0.358,0,0.702-0.125,1.031-0.376s0.634-0.582,0.913-0.993
			c0.279-0.412,0.533-0.88,0.763-1.402s0.424-1.057,0.586-1.601c0.16-0.544,0.286-1.076,0.375-1.595
			c0.09-0.52,0.135-0.979,0.135-1.381c-0.015,0.036-0.052,0.068-0.113,0.097c-0.061,0.028-0.127,0.052-0.198,0.069
			c-0.071,0.019-0.144,0.031-0.215,0.038s-0.129,0.011-0.172,0.011c-0.129,0-0.243-0.034-0.344-0.102
			c-0.101-0.068-0.185-0.156-0.253-0.264c-0.067-0.107-0.117-0.228-0.15-0.359c-0.031-0.133-0.048-0.264-0.048-0.393
			c0-0.344,0.109-0.629,0.327-0.854c0.219-0.227,0.564-0.339,1.037-0.339c0.265,0,0.485,0.054,0.66,0.161
			c0.176,0.107,0.317,0.251,0.425,0.43s0.185,0.383,0.231,0.612c0.046,0.229,0.069,0.466,0.069,0.709c0,0.587-0.05,1.233-0.15,1.938
			c-0.101,0.706-0.26,1.417-0.478,2.133c-0.219,0.716-0.494,1.409-0.828,2.078c-0.332,0.67-0.731,1.265-1.197,1.783
			c-0.466,0.52-0.999,0.937-1.601,1.252s-1.274,0.473-2.02,0.473c-0.716,0-1.302-0.152-1.757-0.457
			c-0.454-0.304-0.746-0.768-0.875-1.391c-0.265,0.401-0.537,0.722-0.816,0.961c-0.279,0.24-0.553,0.427-0.822,0.559
			c-0.268,0.133-0.529,0.221-0.783,0.264c-0.255,0.043-0.489,0.064-0.704,0.064c-0.329,0-0.638-0.05-0.924-0.15
			s-0.535-0.258-0.747-0.473c-0.211-0.215-0.377-0.487-0.499-0.816s-0.183-0.727-0.183-1.192c0-0.2,0.015-0.421,0.043-0.661
			c0.028-0.239,0.071-0.499,0.129-0.778l1.493-7.058h3.169l-1.579,7.477c-0.043,0.187-0.064,0.372-0.064,0.559
			c0,0.129,0.011,0.251,0.032,0.365s0.058,0.217,0.107,0.307c0.05,0.089,0.116,0.16,0.199,0.215c0.082,0.053,0.188,0.08,0.316,0.08
			c0.215,0,0.412-0.049,0.591-0.145c0.179-0.098,0.342-0.231,0.489-0.403c0.146-0.172,0.275-0.378,0.387-0.618
			c0.11-0.239,0.209-0.499,0.295-0.778L54.425,5.926z"/>
		<path fill="#E5BBE8" d="M66.358,16.926l3.115-14.566h-0.258c-0.58,0-1.123,0.066-1.627,0.199
			c-0.506,0.132-0.944,0.365-1.316,0.697C65.9,3.59,65.608,4.042,65.397,4.615c-0.212,0.573-0.317,1.304-0.317,2.191
			c0,0.279,0.017,0.507,0.048,0.682c0.033,0.176,0.066,0.315,0.103,0.42c0.036,0.104,0.069,0.184,0.103,0.241
			c0.031,0.058,0.048,0.107,0.048,0.15c-0.38,0-0.716-0.038-1.01-0.112c-0.294-0.076-0.539-0.195-0.735-0.36
			c-0.197-0.165-0.348-0.383-0.451-0.655c-0.104-0.272-0.156-0.605-0.156-0.999c0-0.73,0.136-1.441,0.408-2.132
			c0.272-0.691,0.707-1.302,1.305-1.832c0.599-0.53,1.374-0.956,2.326-1.278s2.109-0.483,3.47-0.483c0.444,0,0.84,0.013,1.186,0.037
			c0.348,0.025,0.67,0.056,0.967,0.092c0.299,0.036,0.58,0.077,0.844,0.123c0.266,0.047,0.531,0.088,0.801,0.124
			c0.268,0.036,0.551,0.066,0.848,0.091c0.299,0.025,0.625,0.038,0.984,0.038c0.516,0,0.994-0.047,1.439-0.14
			c0.443-0.093,0.816-0.2,1.117-0.322c-0.037,0.967-0.285,1.674-0.748,2.121c-0.461,0.448-1.129,0.672-2.002,0.672
			c-0.545,0-1.098-0.05-1.66-0.15S73.164,2.922,72.557,2.8l-3.041,14.126H66.358z"/>
		<path fill="#E5BBE8" d="M83.893,7.183c-0.121,0.236-0.252,0.492-0.391,0.769c-0.141,0.275-0.301,0.547-0.484,0.816
			c-0.182,0.268-0.387,0.522-0.611,0.762c-0.227,0.24-0.486,0.439-0.779,0.597c-0.072,1.053-0.254,2.005-0.549,2.857
			c-0.293,0.853-0.67,1.575-1.133,2.17c-0.461,0.595-0.996,1.053-1.6,1.375c-0.605,0.322-1.256,0.483-1.951,0.483
			c-0.508,0-0.979-0.062-1.412-0.188c-0.434-0.126-0.805-0.326-1.117-0.602c-0.311-0.276-0.555-0.635-0.73-1.074
			c-0.176-0.441-0.264-0.977-0.264-1.606c0-0.43,0.043-0.919,0.129-1.466c0.086-0.549,0.225-1.112,0.414-1.692
			s0.438-1.147,0.742-1.702c0.303-0.556,0.676-1.052,1.117-1.488c0.439-0.437,0.953-0.789,1.541-1.059
			c0.586-0.268,1.26-0.402,2.02-0.402c1.732,0,2.664,0.988,2.793,2.965c0.186-0.043,0.359-0.125,0.521-0.247
			c0.16-0.122,0.307-0.258,0.439-0.408s0.25-0.305,0.355-0.462c0.104-0.157,0.188-0.29,0.252-0.397H83.893z M79.758,10.459
			c-0.352-0.129-0.527-0.458-0.527-0.988c0-0.565,0.209-0.949,0.623-1.149c-0.035-0.473-0.115-0.8-0.24-0.983
			c-0.127-0.182-0.324-0.273-0.598-0.273c-0.258,0-0.508,0.102-0.752,0.307c-0.242,0.203-0.473,0.474-0.688,0.811
			s-0.41,0.722-0.584,1.154c-0.176,0.434-0.326,0.88-0.451,1.338c-0.127,0.458-0.223,0.911-0.291,1.359
			c-0.068,0.447-0.102,0.854-0.102,1.219s0.02,0.662,0.059,0.892s0.104,0.41,0.193,0.542c0.09,0.133,0.205,0.225,0.35,0.274
			c0.143,0.05,0.318,0.075,0.525,0.075c0.266,0,0.529-0.118,0.791-0.354c0.26-0.236,0.502-0.559,0.725-0.967
			c0.221-0.408,0.416-0.892,0.586-1.45C79.545,11.705,79.672,11.104,79.758,10.459z"/>
	</g>
	<g opacity="0.5">
		<path fill="#E5BBE8" d="M127.74,38.126c0,0.558-0.104,1.078-0.307,1.562c-0.205,0.483-0.488,0.909-0.85,1.278
			c-0.359,0.369-0.781,0.66-1.266,0.873c-0.482,0.213-1.004,0.319-1.561,0.319c-0.559,0-1.078-0.106-1.561-0.319
			c-0.484-0.213-0.91-0.504-1.279-0.873s-0.66-0.795-0.873-1.278s-0.318-1.004-0.318-1.562c0-0.557,0.105-1.077,0.318-1.561
			s0.504-0.905,0.873-1.267c0.369-0.36,0.795-0.643,1.279-0.848c0.482-0.205,1.002-0.308,1.561-0.308
			c0.557,0,1.078,0.103,1.561,0.308c0.484,0.205,0.906,0.487,1.266,0.848c0.361,0.361,0.645,0.783,0.85,1.267
			C127.637,37.049,127.74,37.569,127.74,38.126z M132.215,10.936c0-1.475-0.295-2.605-0.885-3.393
			c-0.59-0.786-1.418-1.18-2.484-1.18c-0.557,0-1.072,0.106-1.549,0.319c-0.475,0.213-0.885,0.504-1.229,0.873
			c-0.344,0.368-0.615,0.803-0.811,1.303c-0.197,0.5-0.295,1.045-0.295,1.635c0,0.853,0.217,1.647,0.65,2.385
			s1.021,1.271,1.758,1.598v0.197c-0.605,0.558-1.24,0.979-1.904,1.266c-0.664,0.287-1.299,0.431-1.906,0.431
			c-0.541,0-1.037-0.103-1.486-0.308c-0.451-0.204-0.836-0.491-1.156-0.86s-0.564-0.812-0.738-1.327
			c-0.172-0.517-0.258-1.095-0.258-1.733c0-1.196,0.268-2.307,0.799-3.331c0.533-1.024,1.268-1.914,2.201-2.668
			s2.035-1.344,3.307-1.77c1.27-0.427,2.643-0.64,4.117-0.64c1.361,0,2.582,0.16,3.664,0.479s2.004,0.778,2.766,1.377
			s1.344,1.327,1.746,2.188c0.4,0.86,0.602,1.832,0.602,2.914c0,1.081-0.189,2.064-0.566,2.949
			c-0.377,0.886-0.871,1.709-1.486,2.472c-0.615,0.762-1.316,1.487-2.102,2.175c-0.787,0.688-1.586,1.369-2.398,2.041
			c-0.811,0.672-1.609,1.36-2.396,2.065c-0.787,0.704-1.486,1.459-2.102,2.262s-1.111,1.684-1.488,2.643s-0.564,2.021-0.564,3.184
			h-3.318c0-1.245,0.135-2.368,0.404-3.368c0.271-0.999,0.631-1.921,1.082-2.766c0.451-0.844,0.959-1.623,1.525-2.336
			c0.564-0.713,1.146-1.401,1.744-2.064c0.598-0.664,1.18-1.319,1.746-1.967c0.564-0.647,1.072-1.328,1.523-2.041
			s0.812-1.479,1.082-2.299C132.08,12.82,132.215,11.919,132.215,10.936z"/>
	</g>
	<g opacity="0.5">
		<path fill="#BDBDE0" d="M0.957,42.635V10.426h9.49c3.318,0,5.91,0.736,7.776,2.211c1.866,1.477,2.799,3.674,2.799,6.594
			c0,1.533-0.34,2.895-1.018,4.08c-0.679,1.188-1.696,2.076-3.053,2.666c1.696,0.398,2.95,1.262,3.761,2.59
			c0.811,1.326,1.217,2.883,1.217,4.666c0,3.084-0.881,5.42-2.644,7.014c-1.763,1.592-4.288,2.389-7.577,2.389H0.957z M7.262,24.031
			h3.473c1.283-0.029,2.268-0.404,2.954-1.121c0.686-0.717,1.028-1.748,1.028-3.094c0-1.508-0.354-2.613-1.062-3.316
			c-0.708-0.701-1.778-1.053-3.208-1.053H7.262V24.031z M7.262,28.434v9.18h4.447c1.327,0,2.319-0.369,2.975-1.105
			c0.656-0.738,0.984-1.836,0.984-3.297c0-1.533-0.28-2.713-0.84-3.539c-0.561-0.826-1.46-1.238-2.699-1.238H7.262z"/>
		<path fill="#BDBDE0" d="M23.08,29.207c0-3.215,0.852-5.844,2.555-7.887c1.703-2.043,4.089-3.064,7.156-3.064
			s5.457,1.021,7.168,3.064c1.71,2.043,2.566,4.672,2.566,7.887v2.965c0,3.244-0.855,5.877-2.566,7.896
			c-1.711,2.021-4.093,3.031-7.146,3.031c-3.083,0-5.476-1.01-7.179-3.031c-1.704-2.02-2.555-4.652-2.555-7.896V29.207z
			 M29.34,32.162c0,1.848,0.258,3.295,0.774,4.344c0.516,1.047,1.416,1.572,2.699,1.572c1.239,0,2.12-0.527,2.644-1.584
			c0.523-1.057,0.785-2.5,0.785-4.332v-2.969c0-1.801-0.262-3.238-0.785-4.309c-0.524-1.07-1.413-1.607-2.666-1.607
			s-2.142,0.541-2.666,1.619c-0.524,1.078-0.786,2.51-0.786,4.297V32.162z"/>
		<path fill="#BDBDE0" d="M43.585,29.561c0-3.377,0.697-6.105,2.09-8.186c1.394-2.078,3.359-3.119,5.896-3.119
			c1.062,0,1.999,0.27,2.81,0.809c0.811,0.537,1.519,1.309,2.124,2.311l0.398-2.676h5.464V42.17c0,3.143-0.911,5.615-2.732,7.422
			s-4.317,2.711-7.488,2.711c-1.032,0-2.131-0.166-3.296-0.498s-2.249-0.777-3.252-1.338l1.106-4.846
			c0.84,0.473,1.696,0.826,2.566,1.062s1.814,0.354,2.832,0.354c1.327,0,2.323-0.416,2.986-1.25
			c0.664-0.832,0.996-2.045,0.996-3.639v-1.371c-0.59,0.768-1.261,1.346-2.013,1.736c-0.752,0.391-1.601,0.586-2.544,0.586
			c-2.522,0-4.477-0.969-5.863-2.908s-2.079-4.502-2.079-7.688V29.561z M49.868,32.518c0,1.742,0.25,3.105,0.752,4.088
			c0.501,0.982,1.342,1.473,2.522,1.473c0.649,0,1.22-0.133,1.714-0.398s0.903-0.658,1.228-1.174V25.162
			c-0.325-0.592-0.727-1.049-1.206-1.375c-0.479-0.324-1.043-0.486-1.692-0.486c-1.18,0-2.028,0.572-2.544,1.717
			s-0.774,2.662-0.774,4.553V32.518z"/>
		<path fill="#BDBDE0" d="M64.095,29.207c0-3.215,0.852-5.844,2.555-7.887c1.703-2.043,4.089-3.064,7.156-3.064
			s5.457,1.021,7.168,3.064s2.566,4.672,2.566,7.887v2.965c0,3.244-0.855,5.877-2.566,7.896c-1.711,2.021-4.093,3.031-7.146,3.031
			c-3.083,0-5.476-1.01-7.179-3.031c-1.704-2.02-2.555-4.652-2.555-7.896V29.207z M70.355,32.162c0,1.848,0.258,3.295,0.774,4.344
			c0.517,1.047,1.416,1.572,2.699,1.572c1.239,0,2.12-0.527,2.644-1.584s0.785-2.5,0.785-4.332v-2.969
			c0-1.801-0.262-3.238-0.785-4.309s-1.412-1.607-2.666-1.607s-2.143,0.541-2.666,1.619s-0.785,2.51-0.785,4.297V32.162z"/>
		<path fill="#BDBDE0" d="M92.787,12.748v5.951h3.318v4.557h-3.318v12.012c0,0.975,0.14,1.672,0.42,2.092s0.664,0.631,1.15,0.631
			c0.384,0,0.708-0.02,0.974-0.057c0.266-0.035,0.561-0.1,0.885-0.188l0.487,4.779c-0.664,0.205-1.299,0.354-1.902,0.441
			c-0.605,0.088-1.291,0.133-2.059,0.133c-2.02,0-3.564-0.623-4.635-1.869c-1.068-1.246-1.604-3.227-1.604-5.939V23.256h-2.831
			v-4.557h2.831v-5.951H92.787z"/>
		<path fill="#BDBDE0" d="M109.695,42.635c-0.178-0.398-0.336-0.832-0.476-1.305c-0.141-0.473-0.247-0.951-0.321-1.438
			c-0.59,0.973-1.309,1.75-2.156,2.334c-0.849,0.582-1.833,0.873-2.953,0.873c-1.977,0-3.559-0.648-4.746-1.947
			c-1.188-1.297-1.781-3.029-1.781-5.197c0-2.346,0.756-4.166,2.268-5.465c1.512-1.297,3.758-1.947,6.736-1.947h2.367v-1.947
			c0-1.164-0.209-2.061-0.63-2.688s-1.051-0.939-1.892-0.939c-0.708,0-1.238,0.25-1.593,0.752s-0.53,1.232-0.53,2.189l-6.084-0.021
			l-0.066-0.133c-0.074-2.08,0.697-3.85,2.312-5.309c1.614-1.461,3.742-2.191,6.382-2.191c2.492,0,4.517,0.727,6.072,2.18
			c1.557,1.453,2.334,3.521,2.334,6.205v9.689c0,1.18,0.082,2.279,0.244,3.297s0.412,2.02,0.752,3.008H109.695z M107.019,9.363
			h6.614l0.066,0.133l-5.508,5.752l-5.066-0.012L107.019,9.363z M105.603,38.365c0.634,0,1.22-0.17,1.759-0.508
			c0.538-0.34,0.963-0.775,1.271-1.307v-4.402h-2.367c-0.959,0-1.651,0.332-2.079,0.996s-0.642,1.504-0.642,2.521
			c0,0.797,0.185,1.445,0.553,1.947C104.467,38.115,104.969,38.365,105.603,38.365z"/>
	</g>
</g>
</svg>
